<?xml version="1.0" encoding="iso-8859-1"?>
<!-- Generator: Adobe Illustrator 18.0.0, SVG Export Plug-In . SVG Version: 6.00 Build 0)  -->
<!DOCTYPE svg PUBLIC "-//W3C//DTD SVG 1.1//EN" "http://www.w3.org/Graphics/SVG/1.1/DTD/svg11.dtd">
<svg version="1.1" id="Capa_1" xmlns="http://www.w3.org/2000/svg" xmlns:xlink="http://www.w3.org/1999/xlink" x="0px" y="0px"
	 viewBox="0 0 254.371 254.371" style="enable-background:new 0 0 254.371 254.371;" xml:space="preserve">
<g>
	<path d="M141.062,57.667c1.671,0.293,3.372,0.442,5.056,0.442c14.11,0,26.133-10.102,28.588-24.02
		c1.347-7.642-0.36-15.349-4.809-21.703c-4.449-6.356-11.11-10.597-18.753-11.941C149.47,0.149,147.766,0,146.077,0
		c-14.112,0-26.132,10.098-28.58,24.007c-1.351,7.643,0.358,15.354,4.81,21.712C126.758,52.073,133.416,56.316,141.062,57.667z
		 M127.293,25.733c1.61-9.147,9.51-15.787,18.785-15.787c1.112,0,2.236,0.099,3.342,0.294c5.026,0.884,9.404,3.672,12.33,7.85
		c2.925,4.178,4.048,9.246,3.162,14.271c-1.615,9.156-9.518,15.801-18.793,15.801c-1.11,0-2.232-0.098-3.332-0.291
		c-5.025-0.887-9.404-3.678-12.332-7.858C127.527,35.833,126.404,30.762,127.293,25.733z"/>
	<path d="M123.807,164.418c-1.195-2.473-4.169-3.509-6.642-2.314c-2.473,1.195-3.509,4.169-2.314,6.641l40.025,82.816
		c0.858,1.776,2.633,2.81,4.481,2.81c0.726,0,1.463-0.16,2.161-0.497c2.473-1.195,3.508-4.169,2.313-6.642L123.807,164.418z"/>
	<path d="M125.072,78.556l7.129,1.259l-7.494,42.51c-0.477,2.705,1.329,5.284,4.034,5.762l47.31,8.347
		c0.292,0.052,0.583,0.076,0.87,0.076c2.367,0,4.466-1.697,4.892-4.11c0.477-2.705-1.329-5.284-4.034-5.762l-42.413-7.483
		l7.494-42.51c0.477-2.705-1.329-5.283-4.033-5.761l0,0l0,0c-0.001,0-0.001-0.001-0.002-0.001h-0.002l-12.025-2.124
		c-15.356-2.702-30.05,7.584-32.756,22.929l-9.094,51.591c-1.577,8.947,1.254,17.996,7.461,24.474l-38.409,79.477
		c-1.195,2.473-0.159,5.447,2.314,6.642c0.698,0.337,1.434,0.497,2.161,0.497c1.848,0,3.623-1.035,4.481-2.81l39.988-82.745h-0.001
		c1.045-2.072,0.522-4.661-1.374-6.148c-5.386-4.224-8.001-10.991-6.826-17.661l9.095-51.59
		C105.592,83.471,115.119,76.804,125.072,78.556z"/>
	<path d="M207.524,90.26c-2.705-0.477-5.284,1.329-5.761,4.034l-27.194,154.239c-0.477,2.705,1.329,5.284,4.034,5.761
		c0.292,0.051,0.582,0.076,0.869,0.076c2.368,0,4.467-1.697,4.892-4.11l27.194-154.239C212.035,93.316,210.229,90.736,207.524,90.26
		z"/>
	<path d="M74.554,147.427c1.013,0,2.011-0.31,2.853-0.899c1.08-0.757,1.816-1.911,2.045-3.211l11.426-64.833
		c0.476-2.704-1.329-5.283-4.033-5.76l-26.835-4.74c-1.299-0.23-2.636,0.066-3.717,0.823c-1.081,0.757-1.817,1.911-2.046,3.211
		l-11.436,64.839c-0.229,1.299,0.067,2.636,0.824,3.716c0.757,1.081,1.911,1.817,3.21,2.046l26.845,4.734
		C73.978,147.402,74.266,147.427,74.554,147.427z M53.472,133.687l9.707-55.043l17.04,3.01l-9.7,55.039L53.472,133.687z"/>
</g>
<g>
</g>
<g>
</g>
<g>
</g>
<g>
</g>
<g>
</g>
<g>
</g>
<g>
</g>
<g>
</g>
<g>
</g>
<g>
</g>
<g>
</g>
<g>
</g>
<g>
</g>
<g>
</g>
<g>
</g>
</svg>
